<svg xmlns="http://www.w3.org/2000/svg" width="50" height="50" version="1.1" viewBox="0 0 752 752"><g><path d="m320.12 219.72c-54.934 0-99.453 44.516-99.453 99.453v113.66c0 54.934 44.516 99.453 99.453 99.453 54.934 0 99.453-44.516 99.453-99.453v-113.66c0-54.938-44.516-99.453-99.453-99.453zm75.773 213.11c0 41.676-34.098 75.773-75.773 75.773-41.676 0-75.773-34.098-75.773-75.773l0.003906-113.66c0-41.676 34.098-75.773 75.773-75.773 41.676 0 75.773 34.098 75.773 75.773z"/><path d="m320.12 283.18c-6.6289 0-11.84 5.2109-11.84 11.84v34.57c0 6.6289 5.2109 11.84 11.84 11.84 6.6289 0 11.84-5.2109 11.84-11.84v-34.57c0-6.1562-5.207-11.84-11.84-11.84z"/><path d="m505.29 280.81c-0.47266-0.47266-1.4219-1.4219-2.3672-1.4219-0.94531-0.47266-1.8945-0.47266-2.3672-0.47266-0.47266 0-1.8945 0-2.3672 0.47266-0.94531 0.47266-1.4219 0.94531-2.3672 1.4219l-28.414 28.414c-2.8398 2.8398-2.8398 7.1055 0 9.9453 1.4219 1.4219 3.3164 1.8945 5.2109 1.8945 1.8945 0 3.7891-0.47266 5.2109-1.8945l16.102-16.102-0.007813 162.91c0 3.7891 3.3164 7.1055 7.1055 7.1055 3.7891 0 7.1055-3.3164 7.1055-7.1055l-0.003906-162.91 16.102 16.102c1.4219 1.4219 3.3164 1.8945 5.2109 1.8945 1.8945 0 3.7891-0.47266 5.2109-1.8945 2.8398-2.8398 2.8398-7.1055 0-9.9453z"/></g></svg>